<svg width="434" height="212" viewBox="0 0 434 212" fill="none" xmlns="http://www.w3.org/2000/svg">
<path d="M212.562 102.154L212.291 35.6543L242.406 35.5296C246.713 35.5118 250.58 36.4141 254.007 38.2366C257.435 40.0591 260.137 42.5813 262.113 45.8031C264.153 48.9614 265.181 52.5988 265.198 56.7155C265.215 60.8954 264.216 64.6363 262.203 67.938C260.253 71.2394 257.572 73.8789 254.16 75.8563C250.748 77.7705 246.889 78.7365 242.582 78.7543L227.952 78.8148L228.047 102.09L212.562 102.154ZM249.517 102.001L232.484 71.956L249.099 69.5122L268.042 102.019L249.517 102.001ZM227.901 66.1799L241.106 66.1253C242.752 66.1185 244.176 65.7642 245.376 65.0626C246.64 64.2974 247.586 63.2801 248.214 62.0108C248.905 60.7413 249.248 59.2832 249.241 57.6365C249.234 55.9265 248.816 54.4399 247.988 53.1767C247.223 51.9132 246.111 50.9361 244.651 50.2455C243.255 49.4912 241.575 49.1182 239.611 49.1263L227.832 49.1751L227.901 66.1799Z" fill="#0D1351"/>
<path d="M273.276 101.902L273.006 35.403L289.25 35.3357L289.521 101.835L273.276 101.902ZM280.772 76.4112L280.717 62.8263L315.297 62.6831L315.352 76.268L280.772 76.4112ZM280.664 49.7164L280.605 35.3715L318.985 35.2126L319.043 49.5575L280.664 49.7164Z" fill="#0D1351"/>
<path d="M324.591 101.69L324.536 88.0101L335.745 87.9637L335.586 48.824L324.376 48.8704L324.321 35.1905L362.985 35.0305L363.041 48.7104L351.831 48.7568L351.99 87.8965L363.2 87.8501L363.256 101.53L324.591 101.69Z" fill="#0D1351"/>
<path d="M372.346 101.492L372.076 34.9929L400.1 34.8769C404.977 34.8567 409.445 35.6615 413.505 37.2914C417.565 38.8579 421.058 41.1235 423.983 44.0881C426.908 46.9893 429.171 50.495 430.771 54.6051C432.371 58.6518 433.18 63.1135 433.2 67.9901C433.22 72.9301 432.447 77.43 430.88 81.4898C429.313 85.5497 427.079 89.074 424.178 92.0627C421.277 94.988 417.803 97.2825 413.756 98.9459C409.773 100.546 405.311 101.356 400.371 101.376L372.346 101.492ZM388.545 90.2152L386.443 87.0888L399.838 87.0334C402.434 87.0226 404.776 86.5696 406.862 85.6743C408.948 84.779 410.717 83.505 412.167 81.8523C413.68 80.136 414.811 78.1363 415.562 75.8532C416.376 73.5065 416.777 70.9081 416.765 68.0582C416.754 65.2082 416.332 62.6449 415.499 60.3683C414.73 58.0282 413.582 56.0379 412.055 54.3975C410.591 52.6936 408.813 51.4026 406.719 50.5246C404.625 49.6466 402.28 49.213 399.684 49.2237L386.004 49.2803L388.367 46.3255L388.545 90.2152Z" fill="#0D1351"/>
<path d="M212.867 177.153L212.597 110.654L241.381 110.535C245.561 110.517 249.302 111.452 252.603 113.338C255.904 115.224 258.511 117.81 260.424 121.096C262.338 124.318 263.303 128.019 263.32 132.199C263.337 136.442 262.402 140.278 260.516 143.706C258.63 147.133 256.045 149.836 252.759 151.813C249.474 153.79 245.741 154.787 241.561 154.804L229.021 154.856L229.112 177.086L212.867 177.153ZM228.773 140.512L239.318 140.468C240.711 140.463 241.945 140.141 243.019 139.503C244.156 138.802 245.071 137.848 245.763 136.642C246.454 135.435 246.797 134.072 246.791 132.552C246.784 130.969 246.431 129.609 245.729 128.472C245.028 127.335 244.106 126.452 242.963 125.823C241.884 125.194 240.648 124.883 239.255 124.888L228.71 124.932L228.773 140.512Z" fill="#0D1351"/>
<path d="M269.592 176.918L269.321 110.419L285.566 110.352L285.778 162.506L315.418 162.383L315.477 176.728L269.592 176.918Z" fill="#0D1351"/>
<path d="M313.135 176.738L339.179 110.13L352.954 110.073L379.349 176.464L363.01 176.532L350.237 142.859C349.789 141.531 349.276 140.108 348.7 138.591C348.187 137.073 347.674 135.491 347.161 133.847C346.647 132.202 346.166 130.621 345.716 129.103C345.267 127.585 344.881 126.161 344.559 124.833L347.314 124.726C346.94 126.311 346.535 127.864 346.098 129.386C345.66 130.908 345.192 132.43 344.691 133.952C344.191 135.474 343.659 136.996 343.095 138.519C342.594 139.977 342.062 141.5 341.498 143.085L329.095 176.672L313.135 176.738ZM325.623 163.956L330.703 151.585L361.103 151.459L366.283 163.788L325.623 163.956Z" fill="#0D1351"/>
<path d="M391.147 176.415L391.012 143.26L391.696 147.913L364.657 110.024L383.087 109.948L403.631 139.123L395.364 138.872L413.581 109.822L431.536 109.747L405.95 148.899L407.349 142.338L407.487 176.347L391.147 176.415Z" fill="#0D1351"/>
<path d="M192.637 66.0714C198.385 102.562 172.986 136.878 135.908 142.718C98.8287 148.559 64.1107 123.713 58.3627 87.2225C52.6147 50.7323 78.0133 16.4163 115.092 10.5755C152.171 4.73482 186.889 29.5811 192.637 66.0714Z" fill="url(#paint0_linear_205_2)"/>
<path d="M144.682 73.6253C150.43 110.116 125.031 144.432 87.9525 150.272C50.8737 156.113 16.1557 131.267 10.4077 94.7765C4.65969 58.2863 30.0583 23.9702 67.1371 18.1295C104.216 12.2888 138.934 37.1351 144.682 73.6253Z" fill="url(#paint1_linear_205_2)"/>
<path d="M192.637 66.0714C198.385 102.562 172.986 136.878 135.908 142.718C98.8287 148.559 64.1107 123.713 58.3627 87.2225C52.6147 50.7323 78.0133 16.4163 115.092 10.5755C152.171 4.73482 186.889 29.5811 192.637 66.0714Z" fill="url(#paint2_linear_205_2)"/>
<path d="M144.682 73.6253C150.43 110.116 125.031 144.432 87.9525 150.272C50.8737 156.113 16.1557 131.267 10.4077 94.7765C4.65969 58.2863 30.0583 23.9702 67.1371 18.1295C104.216 12.2888 138.934 37.1351 144.682 73.6253Z" fill="url(#paint3_linear_205_2)"/>
<path d="M198.68 104.435C204.428 140.926 179.029 175.242 141.951 181.082C104.872 186.923 70.1539 162.077 64.4059 125.587C58.6579 89.0963 84.0565 54.7803 121.135 48.9396C158.214 43.0988 192.932 67.9452 198.68 104.435Z" fill="url(#paint4_linear_205_2)"/>
<path d="M152.739 124.777C158.487 161.268 133.089 195.584 96.0101 201.424C58.9313 207.265 24.2133 182.419 18.4653 145.929C12.7173 109.438 38.1159 75.1223 75.1947 69.2816C112.273 63.4409 146.991 88.2872 152.739 124.777Z" fill="url(#paint5_linear_205_2)"/>
<g filter="url(#filter0_b_205_2)">
<path d="M85.741 132.69C92.5484 139.989 96.6825 147.679 89.6458 154.242C82.6091 160.805 75.2266 156.145 68.4192 148.846C61.613 141.549 56.9364 134.365 64.5143 127.297C72.0922 120.229 78.9347 125.393 85.741 132.69Z" fill="white"/>
</g>
<g filter="url(#filter1_b_205_2)">
<path d="M138.195 146.283L138.229 145.234L138.295 143.138C137.701 112.173 112.818 86.5763 81.395 85.3812L77.2041 85.2224L71.967 85.0224C65.6813 84.7836 60.2782 89.8231 60.0804 96.1091C59.8814 102.396 64.9525 107.833 71.2382 108.072L79.6164 108.391C99.5187 109.147 115.24 126.003 114.611 145.91L114.413 152.196C114.214 158.483 118.778 163.376 125.063 163.615C128.206 163.735 130.874 162.264 133.036 160.247C135.196 158.232 136.344 155.128 136.95 152.528L138.196 146.281L138.195 146.283Z" fill="white"/>
</g>
<g filter="url(#filter2_b_205_2)">
<path d="M165.8 151.253L165.964 146.544L166.159 140.896C163.959 95.5746 128.029 58.0283 82.3862 55.9599C82.3862 55.9599 81.9318 55.4726 81.4448 55.9268L73.4581 55.1758C68.7511 55.0103 64.3676 59.0988 63.7172 64.2611C63.5548 68.9682 67.644 73.3524 72.8054 74.0051L81.2781 74.3008C118.449 76.0725 147.532 107.254 147.2 144.003L146.971 150.594C146.809 155.301 150.898 159.685 156.059 160.338C160.766 160.501 165.15 156.413 165.8 151.253Z" fill="white"/>
</g>
<path d="M192.637 66.0714C198.385 102.562 172.986 136.878 135.908 142.718C98.8287 148.559 64.1107 123.713 58.3627 87.2225C52.6147 50.7323 78.0133 16.4163 115.092 10.5755C152.171 4.73482 186.889 29.5811 192.637 66.0714Z" fill="url(#paint6_linear_205_2)"/>
<path d="M144.682 73.6253C150.43 110.116 125.031 144.432 87.9525 150.272C50.8737 156.113 16.1557 131.267 10.4077 94.7765C4.65969 58.2863 30.0583 23.9702 67.1371 18.1295C104.216 12.2888 138.934 37.1351 144.682 73.6253Z" fill="url(#paint7_linear_205_2)"/>
<path d="M192.637 66.0714C198.385 102.562 172.986 136.878 135.908 142.718C98.8287 148.559 64.1107 123.713 58.3627 87.2225C52.6147 50.7323 78.0133 16.4163 115.092 10.5755C152.171 4.73482 186.889 29.5811 192.637 66.0714Z" fill="url(#paint8_linear_205_2)"/>
<path d="M144.682 73.6253C150.43 110.116 125.031 144.432 87.9525 150.272C50.8737 156.113 16.1557 131.267 10.4077 94.7765C4.65969 58.2863 30.0583 23.9702 67.1371 18.1295C104.216 12.2888 138.934 37.1351 144.682 73.6253Z" fill="url(#paint9_linear_205_2)"/>
<path d="M198.68 104.435C204.428 140.926 179.029 175.242 141.951 181.082C104.872 186.923 70.1539 162.077 64.4059 125.587C58.6579 89.0963 84.0565 54.7803 121.135 48.9396C158.214 43.0988 192.932 67.9452 198.68 104.435Z" fill="url(#paint10_linear_205_2)"/>
<path d="M152.739 124.777C158.487 161.268 133.089 195.584 96.0101 201.424C58.9313 207.265 24.2133 182.419 18.4653 145.929C12.7173 109.438 38.1159 75.1223 75.1947 69.2816C112.273 63.4409 146.991 88.2872 152.739 124.777Z" fill="url(#paint11_linear_205_2)"/>
<g filter="url(#filter3_b_205_2)">
<path d="M84.8869 122.472C91.6943 129.771 95.8284 137.46 88.7917 144.024C81.7551 150.587 74.3726 145.926 67.5651 138.628C60.7589 131.33 56.0824 124.146 63.6603 117.079C71.2381 110.011 78.0807 115.175 84.8869 122.472Z" fill="white"/>
</g>
<g filter="url(#filter4_b_205_2)">
<path d="M130.829 138.972L130.863 137.923L130.929 135.828C130.335 104.862 105.452 79.2655 74.0289 78.0704L69.838 77.9116L64.6009 77.7116C58.3152 77.4728 52.9121 82.5123 52.7143 88.7983C52.5153 95.0854 57.5864 100.522 63.8722 100.761L72.2503 101.08C92.1526 101.836 107.874 118.693 107.244 138.599L107.047 144.885C106.848 151.172 111.412 156.066 117.697 156.304C120.84 156.424 123.508 154.953 125.67 152.936C127.83 150.921 128.978 147.817 129.584 145.218L130.83 138.971L130.829 138.972Z" fill="white"/>
</g>
<g filter="url(#filter5_b_205_2)">
<path d="M165.613 140.816L165.777 136.108L165.972 130.46C163.772 85.1383 127.842 47.592 82.1993 45.5236C82.1993 45.5236 81.7448 45.0363 81.2579 45.4905L73.2711 44.7395C68.5641 44.574 64.1806 48.6625 63.5302 53.8248C63.3679 58.5319 67.457 62.9161 72.6185 63.5688L81.0911 63.8645C118.262 65.6362 147.345 96.8173 147.013 133.567L146.784 140.158C146.622 144.865 150.711 149.249 155.872 149.902C160.579 150.065 164.963 145.976 165.613 140.816Z" fill="white"/>
</g>
<defs>
<filter id="filter0_b_205_2" x="-26.3781" y="36.9324" width="206.678" height="207.45" filterUnits="userSpaceOnUse" color-interpolation-filters="sRGB">
<feFlood flood-opacity="0" result="BackgroundImageFix"/>
<feGaussianBlur in="BackgroundImageFix" stdDeviation="43.5"/>
<feComposite in2="SourceAlpha" operator="in" result="effect1_backgroundBlur_205_2"/>
<feBlend mode="normal" in="SourceGraphic" in2="effect1_backgroundBlur_205_2" result="shape"/>
</filter>
<filter id="filter1_b_205_2" x="-26.9253" y="-1.98584" width="252.221" height="252.608" filterUnits="userSpaceOnUse" color-interpolation-filters="sRGB">
<feFlood flood-opacity="0" result="BackgroundImageFix"/>
<feGaussianBlur in="BackgroundImageFix" stdDeviation="43.5"/>
<feComposite in2="SourceAlpha" operator="in" result="effect1_backgroundBlur_205_2"/>
<feBlend mode="normal" in="SourceGraphic" in2="effect1_backgroundBlur_205_2" result="shape"/>
</filter>
<filter id="filter2_b_205_2" x="-23.2875" y="-31.8291" width="276.446" height="279.172" filterUnits="userSpaceOnUse" color-interpolation-filters="sRGB">
<feFlood flood-opacity="0" result="BackgroundImageFix"/>
<feGaussianBlur in="BackgroundImageFix" stdDeviation="43.5"/>
<feComposite in2="SourceAlpha" operator="in" result="effect1_backgroundBlur_205_2"/>
<feBlend mode="normal" in="SourceGraphic" in2="effect1_backgroundBlur_205_2" result="shape"/>
</filter>
<filter id="filter3_b_205_2" x="-27.2321" y="26.7139" width="206.678" height="207.45" filterUnits="userSpaceOnUse" color-interpolation-filters="sRGB">
<feFlood flood-opacity="0" result="BackgroundImageFix"/>
<feGaussianBlur in="BackgroundImageFix" stdDeviation="43.5"/>
<feComposite in2="SourceAlpha" operator="in" result="effect1_backgroundBlur_205_2"/>
<feBlend mode="normal" in="SourceGraphic" in2="effect1_backgroundBlur_205_2" result="shape"/>
</filter>
<filter id="filter4_b_205_2" x="-34.2914" y="-9.29663" width="252.221" height="252.608" filterUnits="userSpaceOnUse" color-interpolation-filters="sRGB">
<feFlood flood-opacity="0" result="BackgroundImageFix"/>
<feGaussianBlur in="BackgroundImageFix" stdDeviation="43.5"/>
<feComposite in2="SourceAlpha" operator="in" result="effect1_backgroundBlur_205_2"/>
<feBlend mode="normal" in="SourceGraphic" in2="effect1_backgroundBlur_205_2" result="shape"/>
</filter>
<filter id="filter5_b_205_2" x="-23.4744" y="-42.2654" width="276.446" height="279.172" filterUnits="userSpaceOnUse" color-interpolation-filters="sRGB">
<feFlood flood-opacity="0" result="BackgroundImageFix"/>
<feGaussianBlur in="BackgroundImageFix" stdDeviation="43.5"/>
<feComposite in2="SourceAlpha" operator="in" result="effect1_backgroundBlur_205_2"/>
<feBlend mode="normal" in="SourceGraphic" in2="effect1_backgroundBlur_205_2" result="shape"/>
</filter>
<linearGradient id="paint0_linear_205_2" x1="145.775" y1="16.7521" x2="78.0955" y2="136.273" gradientUnits="userSpaceOnUse">
<stop stop-color="#A3FEE2"/>
<stop offset="1" stop-color="#3BB2F7"/>
</linearGradient>
<linearGradient id="paint1_linear_205_2" x1="97.8204" y1="24.3061" x2="30.1404" y2="143.827" gradientUnits="userSpaceOnUse">
<stop stop-color="#A3FEE2"/>
<stop offset="1" stop-color="#3BB2F7"/>
</linearGradient>
<linearGradient id="paint2_linear_205_2" x1="145.775" y1="16.7521" x2="78.0955" y2="136.273" gradientUnits="userSpaceOnUse">
<stop stop-color="#A3FEE2"/>
<stop offset="1" stop-color="#3BB2F7"/>
</linearGradient>
<linearGradient id="paint3_linear_205_2" x1="97.8204" y1="24.3061" x2="30.1404" y2="143.827" gradientUnits="userSpaceOnUse">
<stop stop-color="#A3FEE2"/>
<stop offset="1" stop-color="#3BB2F7"/>
</linearGradient>
<linearGradient id="paint4_linear_205_2" x1="151.819" y1="55.1161" x2="84.1386" y2="174.637" gradientUnits="userSpaceOnUse">
<stop stop-color="#A3FEE2"/>
<stop offset="0.375" stop-color="#3E8FF3"/>
<stop offset="1" stop-color="#3BB2F7"/>
</linearGradient>
<linearGradient id="paint5_linear_205_2" x1="105.878" y1="75.4582" x2="38.198" y2="194.979" gradientUnits="userSpaceOnUse">
<stop stop-color="#A3FEE2"/>
<stop offset="1" stop-color="#3BB2F7"/>
</linearGradient>
<linearGradient id="paint6_linear_205_2" x1="145.775" y1="16.7521" x2="78.0955" y2="136.273" gradientUnits="userSpaceOnUse">
<stop stop-color="#A3FEE2"/>
<stop offset="1" stop-color="#3BB2F7"/>
</linearGradient>
<linearGradient id="paint7_linear_205_2" x1="97.8204" y1="24.3061" x2="30.1404" y2="143.827" gradientUnits="userSpaceOnUse">
<stop stop-color="#A3FEE2"/>
<stop offset="1" stop-color="#3BB2F7"/>
</linearGradient>
<linearGradient id="paint8_linear_205_2" x1="145.775" y1="16.7521" x2="78.0955" y2="136.273" gradientUnits="userSpaceOnUse">
<stop stop-color="#A3FEE2"/>
<stop offset="1" stop-color="#3BB2F7"/>
</linearGradient>
<linearGradient id="paint9_linear_205_2" x1="97.8204" y1="24.3061" x2="30.1404" y2="143.827" gradientUnits="userSpaceOnUse">
<stop stop-color="#A3FEE2"/>
<stop offset="1" stop-color="#3BB2F7"/>
</linearGradient>
<linearGradient id="paint10_linear_205_2" x1="151.819" y1="55.1161" x2="84.1386" y2="174.637" gradientUnits="userSpaceOnUse">
<stop stop-color="#A3FEE2"/>
<stop offset="0.375" stop-color="#3E8FF3"/>
<stop offset="1" stop-color="#3BB2F7"/>
</linearGradient>
<linearGradient id="paint11_linear_205_2" x1="105.878" y1="75.4582" x2="38.198" y2="194.979" gradientUnits="userSpaceOnUse">
<stop stop-color="#A3FEE2"/>
<stop offset="1" stop-color="#3BB2F7"/>
</linearGradient>
</defs>
</svg>
