<svg width="98" height="100" viewBox="0 0 98 100" fill="none" xmlns="http://www.w3.org/2000/svg">
<path d="M84.8146 28.8312C88.7848 44.1355 79.3966 59.8126 63.8454 63.8468C48.2942 67.881 32.469 58.7448 28.4987 43.4405C24.5285 28.1361 33.9168 12.4591 49.468 8.42485C65.0192 4.39062 80.8444 13.5268 84.8146 28.8312Z" fill="url(#paint0_linear_83_243)"/>
<path d="M64.7014 34.0487C68.6716 49.3531 59.2834 65.0301 43.7322 69.0643C28.181 73.0986 12.3558 63.9623 8.38559 48.658C4.41539 33.3536 13.8036 17.6766 29.3548 13.6424C44.906 9.60814 60.7312 18.7444 64.7014 34.0487Z" fill="url(#paint1_linear_83_243)"/>
<path d="M84.8146 28.8312C88.7848 44.1355 79.3966 59.8126 63.8454 63.8468C48.2942 67.881 32.469 58.7448 28.4987 43.4405C24.5285 28.1361 33.9168 12.4591 49.468 8.42485C65.0192 4.39062 80.8444 13.5268 84.8146 28.8312Z" fill="url(#paint2_linear_83_243)"/>
<path d="M64.7014 34.0487C68.6716 49.3531 59.2834 65.0301 43.7322 69.0643C28.181 73.0986 12.3558 63.9623 8.38559 48.658C4.41539 33.3536 13.8036 17.6766 29.3548 13.6424C44.906 9.60814 60.7312 18.7444 64.7014 34.0487Z" fill="url(#paint3_linear_83_243)"/>
<path d="M88.9886 44.9213C92.9588 60.2256 83.5706 75.9027 68.0194 79.9369C52.4682 83.9711 36.643 74.8349 32.6728 59.5306C28.7026 44.2262 38.0908 28.5492 53.642 24.5149C69.1932 20.4807 85.0184 29.6169 88.9886 44.9213Z" fill="url(#paint4_linear_83_243)"/>
<path d="M70.2667 55.5023C74.2369 70.8067 64.8486 86.4837 49.2975 90.5179C33.7463 94.5522 17.921 85.416 13.9508 70.1116C9.98063 54.8073 19.3689 39.1302 34.9201 35.096C50.4713 31.0618 66.2965 40.198 70.2667 55.5023Z" fill="url(#paint5_linear_83_243)"/>
<g filter="url(#filter0_b_83_243)">
<path d="M42.0574 61.667C45.2616 64.4921 47.3433 67.5955 44.6195 70.6847C41.8957 73.7738 38.5566 72.0966 35.3524 69.2714C32.1488 66.4467 29.8571 63.5815 32.7904 60.2547C35.7237 56.9279 38.8538 58.8423 42.0574 61.667Z" fill="white"/>
</g>
<g filter="url(#filter1_b_83_243)">
<path d="M64.9682 65.2695L64.9391 64.8213L64.8798 63.926C63.3354 50.76 51.6682 40.8942 38.2329 41.6955L36.4411 41.8026L34.2019 41.9358C31.5143 42.0962 29.4229 44.4682 29.6007 47.1541C29.7782 49.8406 32.1651 51.9452 34.8526 51.7848L38.4348 51.5712C46.9443 51.0635 54.3443 57.5882 54.9061 66.0943L55.084 68.7802C55.2614 71.4667 57.4096 73.3608 60.0971 73.2004C61.4407 73.1205 62.5158 72.3824 63.3527 71.4333C64.1891 70.4847 64.5485 69.1145 64.6983 67.9821L64.9687 65.2689L64.9682 65.2695Z" fill="white"/>
</g>
<g filter="url(#filter2_b_83_243)">
<path d="M76.9345 66.2355L76.8078 64.2231L76.6552 61.8088C73.8284 42.5946 56.9573 28.099 37.4282 29.1213C37.4282 29.1213 37.2143 28.9327 37.0258 29.1464L33.5923 29.1596C31.5803 29.2854 29.8835 31.2098 29.8217 33.4359C29.9489 35.4478 31.8736 37.1449 34.0995 37.2077L37.7209 36.9803C53.629 36.1849 67.3178 48.2547 68.7087 63.9229L68.8862 66.74C69.0134 68.7519 70.9381 70.449 73.164 70.5118C75.1759 70.3851 76.8727 68.4607 76.9345 66.2355Z" fill="white"/>
</g>
<path d="M84.8146 28.8312C88.7848 44.1355 79.3966 59.8126 63.8454 63.8468C48.2942 67.881 32.469 58.7448 28.4987 43.4405C24.5285 28.1361 33.9168 12.4591 49.468 8.42485C65.0192 4.39062 80.8444 13.5268 84.8146 28.8312Z" fill="url(#paint6_linear_83_243)"/>
<path d="M64.7014 34.0487C68.6716 49.3531 59.2834 65.0301 43.7322 69.0643C28.181 73.0986 12.3558 63.9623 8.38559 48.658C4.41539 33.3536 13.8036 17.6766 29.3548 13.6424C44.906 9.60814 60.7312 18.7444 64.7014 34.0487Z" fill="url(#paint7_linear_83_243)"/>
<path d="M84.8146 28.8312C88.7848 44.1355 79.3966 59.8126 63.8454 63.8468C48.2942 67.881 32.469 58.7448 28.4987 43.4405C24.5285 28.1361 33.9168 12.4591 49.468 8.42485C65.0192 4.39062 80.8444 13.5268 84.8146 28.8312Z" fill="url(#paint8_linear_83_243)"/>
<path d="M64.7014 34.0487C68.6716 49.3531 59.2834 65.0301 43.7322 69.0643C28.181 73.0986 12.3558 63.9623 8.38559 48.658C4.41539 33.3536 13.8036 17.6766 29.3548 13.6424C44.906 9.60814 60.7312 18.7444 64.7014 34.0487Z" fill="url(#paint9_linear_83_243)"/>
<path d="M88.9886 44.9213C92.9588 60.2256 83.5706 75.9027 68.0194 79.9369C52.4682 83.9711 36.643 74.8349 32.6728 59.5306C28.7026 44.2262 38.0908 28.5492 53.642 24.5149C69.1932 20.4807 85.0184 29.6169 88.9886 44.9213Z" fill="url(#paint10_linear_83_243)"/>
<path d="M70.2667 55.5023C74.2369 70.8067 64.8486 86.4837 49.2975 90.5179C33.7463 94.5522 17.921 85.416 13.9508 70.1116C9.98063 54.8073 19.3689 39.1302 34.9201 35.096C50.4713 31.0618 66.2965 40.198 70.2667 55.5023Z" fill="url(#paint11_linear_83_243)"/>
<g filter="url(#filter3_b_83_243)">
<path d="M41.2674 57.3497C44.4716 60.1749 46.5533 63.2782 43.8295 66.3674C41.1057 69.4566 37.7666 67.7793 34.5625 64.9541C31.3589 62.1294 29.0672 59.2642 32.0004 55.9374C34.9337 52.6107 38.0638 54.525 41.2674 57.3497Z" fill="white"/>
</g>
<g filter="url(#filter4_b_83_243)">
<path d="M61.5265 62.4625L61.4973 62.0143L61.438 61.119C59.8937 47.953 48.2264 38.0872 34.7912 38.8885L32.9993 38.9956L30.7601 39.1288C28.0725 39.2892 25.9811 41.6612 26.159 44.3471C26.3364 47.0336 28.7233 49.1382 31.4108 48.9778L34.9931 48.7642C43.5025 48.2565 50.9026 54.7812 51.4644 63.2873L51.6423 65.9732C51.8197 68.6597 53.9678 70.5538 56.6554 70.3934C57.9989 70.3135 59.0741 69.5754 59.9109 68.6263C60.7473 67.6777 61.1067 66.3075 61.2565 65.1751L61.5269 62.4619L61.5265 62.4625Z" fill="white"/>
</g>
<g filter="url(#filter5_b_83_243)">
<path d="M75.285 63.0983L75.2999 60.9433L75.3171 58.358C73.7497 37.9014 56.9905 23.5579 36.2751 26.1009C36.2751 26.1009 36.0629 25.9139 35.8479 26.1577L32.2182 26.4257C30.0825 26.7097 28.1469 28.9049 27.9171 31.3037C27.9027 33.4582 29.8115 35.1411 32.1593 35.0442L36.0036 34.532C52.8752 32.5006 66.4505 44.4702 66.7623 61.2191L66.7417 64.2359C66.7274 66.3904 68.6361 68.0734 70.9839 67.9764C73.1196 67.6914 75.0552 65.4962 75.285 63.0983Z" fill="white"/>
</g>
<defs>
<filter id="filter0_b_83_243" x="-55.562" y="-28.5052" width="188.441" height="187.845" filterUnits="userSpaceOnUse" color-interpolation-filters="sRGB">
<feFlood flood-opacity="0" result="BackgroundImageFix"/>
<feGaussianBlur in="BackgroundImageFix" stdDeviation="43.5"/>
<feComposite in2="SourceAlpha" operator="in" result="effect1_backgroundBlur_83_243"/>
<feBlend mode="normal" in="SourceGraphic" in2="effect1_backgroundBlur_83_243" result="shape"/>
</filter>
<filter id="filter1_b_83_243" x="-57.4098" y="-45.3501" width="209.378" height="205.56" filterUnits="userSpaceOnUse" color-interpolation-filters="sRGB">
<feFlood flood-opacity="0" result="BackgroundImageFix"/>
<feGaussianBlur in="BackgroundImageFix" stdDeviation="43.5"/>
<feComposite in2="SourceAlpha" operator="in" result="effect1_backgroundBlur_83_243"/>
<feBlend mode="normal" in="SourceGraphic" in2="effect1_backgroundBlur_83_243" result="shape"/>
</filter>
<filter id="filter2_b_83_243" x="-57.1783" y="-57.9556" width="221.113" height="215.467" filterUnits="userSpaceOnUse" color-interpolation-filters="sRGB">
<feFlood flood-opacity="0" result="BackgroundImageFix"/>
<feGaussianBlur in="BackgroundImageFix" stdDeviation="43.5"/>
<feComposite in2="SourceAlpha" operator="in" result="effect1_backgroundBlur_83_243"/>
<feBlend mode="normal" in="SourceGraphic" in2="effect1_backgroundBlur_83_243" result="shape"/>
</filter>
<filter id="filter3_b_83_243" x="-56.3519" y="-32.8225" width="188.441" height="187.845" filterUnits="userSpaceOnUse" color-interpolation-filters="sRGB">
<feFlood flood-opacity="0" result="BackgroundImageFix"/>
<feGaussianBlur in="BackgroundImageFix" stdDeviation="43.5"/>
<feComposite in2="SourceAlpha" operator="in" result="effect1_backgroundBlur_83_243"/>
<feBlend mode="normal" in="SourceGraphic" in2="effect1_backgroundBlur_83_243" result="shape"/>
</filter>
<filter id="filter4_b_83_243" x="-60.8516" y="-48.1571" width="209.378" height="205.56" filterUnits="userSpaceOnUse" color-interpolation-filters="sRGB">
<feFlood flood-opacity="0" result="BackgroundImageFix"/>
<feGaussianBlur in="BackgroundImageFix" stdDeviation="43.5"/>
<feComposite in2="SourceAlpha" operator="in" result="effect1_backgroundBlur_83_243"/>
<feBlend mode="normal" in="SourceGraphic" in2="effect1_backgroundBlur_83_243" result="shape"/>
</filter>
<filter id="filter5_b_83_243" x="-59.083" y="-61.191" width="221.4" height="216.171" filterUnits="userSpaceOnUse" color-interpolation-filters="sRGB">
<feFlood flood-opacity="0" result="BackgroundImageFix"/>
<feGaussianBlur in="BackgroundImageFix" stdDeviation="43.5"/>
<feComposite in2="SourceAlpha" operator="in" result="effect1_backgroundBlur_83_243"/>
<feBlend mode="normal" in="SourceGraphic" in2="effect1_backgroundBlur_83_243" result="shape"/>
</filter>
<linearGradient id="paint0_linear_83_243" x1="62.796" y1="9.77643" x2="38.9499" y2="63.512" gradientUnits="userSpaceOnUse">
<stop stop-color="#5FF4EB"/>
<stop offset="1" stop-color="#3BB2F7"/>
</linearGradient>
<linearGradient id="paint1_linear_83_243" x1="42.6828" y1="14.994" x2="18.8368" y2="68.7296" gradientUnits="userSpaceOnUse">
<stop stop-color="#5FF4EB"/>
<stop offset="1" stop-color="#3BB2F7"/>
</linearGradient>
<linearGradient id="paint2_linear_83_243" x1="62.796" y1="9.77643" x2="38.9499" y2="63.512" gradientUnits="userSpaceOnUse">
<stop stop-color="#5FF4EB"/>
<stop offset="1" stop-color="#3BB2F7"/>
</linearGradient>
<linearGradient id="paint3_linear_83_243" x1="42.6828" y1="14.994" x2="18.8368" y2="68.7296" gradientUnits="userSpaceOnUse">
<stop stop-color="#5FF4EB"/>
<stop offset="1" stop-color="#3BB2F7"/>
</linearGradient>
<linearGradient id="paint4_linear_83_243" x1="66.97" y1="25.8665" x2="43.1239" y2="79.6021" gradientUnits="userSpaceOnUse">
<stop stop-color="#A3FEE2"/>
<stop offset="0.375" stop-color="#3E8FF3"/>
<stop offset="1" stop-color="#3BB2F7"/>
</linearGradient>
<linearGradient id="paint5_linear_83_243" x1="48.2481" y1="36.4476" x2="24.402" y2="90.1832" gradientUnits="userSpaceOnUse">
<stop stop-color="#5FF4EB"/>
<stop offset="1" stop-color="#3BB2F7"/>
</linearGradient>
<linearGradient id="paint6_linear_83_243" x1="62.796" y1="9.77643" x2="38.9499" y2="63.512" gradientUnits="userSpaceOnUse">
<stop stop-color="#5FF4EB"/>
<stop offset="1" stop-color="#3BB2F7"/>
</linearGradient>
<linearGradient id="paint7_linear_83_243" x1="42.6828" y1="14.994" x2="18.8368" y2="68.7296" gradientUnits="userSpaceOnUse">
<stop stop-color="#5FF4EB"/>
<stop offset="1" stop-color="#3BB2F7"/>
</linearGradient>
<linearGradient id="paint8_linear_83_243" x1="62.796" y1="9.77643" x2="38.9499" y2="63.512" gradientUnits="userSpaceOnUse">
<stop stop-color="#5FF4EB"/>
<stop offset="1" stop-color="#3BB2F7"/>
</linearGradient>
<linearGradient id="paint9_linear_83_243" x1="42.6828" y1="14.994" x2="18.8368" y2="68.7296" gradientUnits="userSpaceOnUse">
<stop stop-color="#5FF4EB"/>
<stop offset="1" stop-color="#3BB2F7"/>
</linearGradient>
<linearGradient id="paint10_linear_83_243" x1="66.97" y1="25.8665" x2="43.1239" y2="79.6021" gradientUnits="userSpaceOnUse">
<stop stop-color="#A3FEE2"/>
<stop offset="0.375" stop-color="#3E8FF3"/>
<stop offset="1" stop-color="#3BB2F7"/>
</linearGradient>
<linearGradient id="paint11_linear_83_243" x1="48.2481" y1="36.4476" x2="24.402" y2="90.1832" gradientUnits="userSpaceOnUse">
<stop stop-color="#5FF4EB"/>
<stop offset="1" stop-color="#3BB2F7"/>
</linearGradient>
</defs>
</svg>
