<svg xmlns="http://www.w3.org/2000/svg" xmlns:xlink="http://www.w3.org/1999/xlink" width="325" zoomAndPan="magnify" viewBox="0 0 243.75 243.749992" height="325" preserveAspectRatio="xMidYMid meet" version="1.0"><defs><clipPath id="2780aec995"><path d="M 86 65.558594 L 220 65.558594 L 220 207 L 86 207 Z M 86 65.558594 " clip-rule="nonzero"/></clipPath><clipPath id="9c8ca54884"><path d="M 22.902344 44.324219 L 106.152344 44.324219 L 106.152344 127.574219 L 22.902344 127.574219 Z M 22.902344 44.324219 " clip-rule="nonzero"/></clipPath></defs><g clip-path="url(#2780aec995)"><path fill="#375ecc" d="M 191.140625 65.460938 C 189.25 65.265625 187.289062 65.828125 185.746094 67.203125 L 185.316406 67.59375 C 182.472656 70.125 182.246094 74.378906 184.578125 77.386719 C 197.128906 93.605469 204.664062 113.886719 204.664062 135.933594 C 204.664062 157.980469 197.128906 178.273438 184.578125 194.480469 C 182.246094 197.492188 182.472656 201.734375 185.316406 204.273438 L 185.746094 204.664062 C 188.839844 207.425781 193.582031 206.910156 196.128906 203.636719 C 210.6875 184.90625 219.429688 161.449219 219.429688 135.933594 C 219.429688 110.417969 210.695312 86.972656 196.128906 68.242188 C 194.859375 66.601562 193.03125 65.652344 191.140625 65.460938 Z M 169.121094 85.15625 C 167.207031 84.953125 165.207031 85.519531 163.644531 86.917969 L 163.195312 87.320312 C 160.515625 89.707031 160.019531 93.75 162.144531 96.636719 C 170.292969 107.644531 175.136719 121.21875 175.136719 135.933594 C 175.136719 150.648438 170.285156 164.234375 162.144531 175.246094 C 160.011719 178.132812 160.53125 182.175781 163.210938 184.558594 L 163.660156 184.964844 C 166.789062 187.753906 171.636719 187.214844 174.125 183.839844 C 184.011719 170.410156 189.898438 153.859375 189.898438 135.933594 C 189.898438 118.007812 184.019531 101.472656 174.125 88.042969 C 172.882812 86.351562 171.039062 85.363281 169.121094 85.15625 Z M 147.105469 104.914062 C 145.148438 104.6875 143.078125 105.265625 141.480469 106.6875 L 140.949219 107.164062 C 138.335938 109.496094 137.90625 113.347656 139.796875 116.292969 C 143.449219 121.984375 145.605469 128.683594 145.605469 135.933594 C 145.605469 139.925781 144.832031 143.707031 143.628906 147.296875 L 107.902344 115.371094 C 107.910156 115.355469 107.921875 115.339844 107.929688 115.324219 L 103.042969 110.984375 C 99.644531 107.972656 94.171875 108.804688 92.140625 112.875 C 88.707031 119.75 86.75 127.5 86.75 135.703125 C 86.75 143.90625 88.699219 151.65625 92.140625 158.546875 C 94.171875 162.605469 99.644531 163.433594 103.042969 160.417969 L 103.648438 159.886719 C 106.023438 157.773438 106.65625 154.351562 105.246094 151.492188 C 102.886719 146.714844 101.511719 141.386719 101.511719 135.703125 C 101.511719 133.746094 101.695312 131.84375 102.003906 129.976562 L 141.480469 165.191406 C 144.664062 168.035156 149.734375 167.492188 152.066406 163.910156 C 157.308594 155.847656 160.371094 146.253906 160.371094 135.933594 C 160.371094 125.617188 157.308594 116.019531 152.066406 107.957031 C 150.902344 106.167969 149.0625 105.140625 147.105469 104.914062 Z M 147.105469 104.914062 " fill-opacity="1" fill-rule="nonzero"/></g><g clip-path="url(#9c8ca54884)"><path fill="#375ecc" d="M 100.523438 74.628906 L 75.847656 74.628906 L 75.847656 49.953125 C 75.847656 46.867188 73.34375 44.367188 70.257812 44.367188 L 58.785156 44.367188 C 55.699219 44.367188 53.199219 46.867188 53.199219 49.953125 L 53.199219 74.628906 L 28.523438 74.628906 C 25.4375 74.628906 22.9375 77.132812 22.9375 80.21875 L 22.9375 91.691406 C 22.9375 94.777344 25.4375 97.277344 28.523438 97.277344 L 53.199219 97.277344 L 53.199219 121.953125 C 53.199219 125.039062 55.699219 127.542969 58.785156 127.542969 L 70.257812 127.542969 C 73.34375 127.542969 75.847656 125.039062 75.847656 121.953125 L 75.847656 97.277344 L 100.523438 97.277344 C 103.609375 97.277344 106.109375 94.777344 106.109375 91.691406 L 106.109375 80.21875 C 106.109375 77.132812 103.609375 74.628906 100.523438 74.628906 " fill-opacity="1" fill-rule="nonzero"/><path stroke-linecap="butt" transform="matrix(0.00756474, 0, 0, -0.00756474, -11.124511, 161.601978)" fill="none" stroke-linejoin="miter" d="M 14758.988466 11497.162068 L 11497.042532 11497.162068 L 11497.042532 14759.108002 C 11497.042532 15167.044884 11166.045644 15497.525397 10758.108761 15497.525397 L 9241.513034 15497.525397 C 8833.576152 15497.525397 8503.095639 15167.044884 8503.095639 14759.108002 L 8503.095639 11497.162068 L 5241.149706 11497.162068 C 4833.212823 11497.162068 4502.732311 11166.16518 4502.732311 10758.228297 L 4502.732311 9241.632571 C 4502.732311 8833.695688 4833.212823 8503.215175 5241.149706 8503.215175 L 8503.095639 8503.215175 L 8503.095639 5241.269242 C 8503.095639 4833.332359 8833.576152 4502.335471 9241.513034 4502.335471 L 10758.108761 4502.335471 C 11166.045644 4502.335471 11497.042532 4833.332359 11497.042532 5241.269242 L 11497.042532 8503.215175 L 14758.988466 8503.215175 C 15166.925348 8503.215175 15497.405861 8833.695688 15497.405861 9241.632571 L 15497.405861 10758.228297 C 15497.405861 11166.16518 15166.925348 11497.162068 14758.988466 11497.162068 Z M 14758.988466 11497.162068 " stroke="#070707" stroke-width="10" stroke-opacity="1" stroke-miterlimit="10"/></g></svg>